<svg width="26" height="27" viewBox="0 0 26 27" fill="none" xmlns="http://www.w3.org/2000/svg">
<path d="M17.9749 0.355591H8.35576C3.92937 0.355591 0.339844 3.94512 0.339844 8.37151V17.9906C0.339844 22.417 3.92937 26.0065 8.35576 26.0065H17.9749C22.4013 26.0065 25.9908 22.417 25.9908 17.9906V8.37151C25.9908 3.94512 22.4013 0.355591 17.9749 0.355591ZM23.586 17.9906C23.586 21.0848 21.069 23.6018 17.9749 23.6018H8.35576C5.26162 23.6018 2.74462 21.0848 2.74462 17.9906V8.37151C2.74462 5.27737 5.26162 2.76037 8.35576 2.76037H17.9749C21.069 2.76037 23.586 5.27737 23.586 8.37151V17.9906Z" fill="white"/>
<path d="M13.1655 6.76843C9.62402 6.76843 6.75272 9.63973 6.75272 13.1812C6.75272 16.7226 9.62402 19.5939 13.1655 19.5939C16.7069 19.5939 19.5782 16.7226 19.5782 13.1812C19.5782 9.63973 16.7069 6.76843 13.1655 6.76843ZM13.1655 17.1891C10.9563 17.1891 9.15749 15.3904 9.15749 13.1812C9.15749 10.9704 10.9563 9.17321 13.1655 9.17321C15.3746 9.17321 17.1734 10.9704 17.1734 13.1812C17.1734 15.3904 15.3746 17.1891 13.1655 17.1891Z" fill="white"/>
<path d="M20.0585 7.14198C20.5304 7.14198 20.913 6.75941 20.913 6.28748C20.913 5.81555 20.5304 5.43298 20.0585 5.43298C19.5866 5.43298 19.204 5.81555 19.204 6.28748C19.204 6.75941 19.5866 7.14198 20.0585 7.14198Z" fill="white"/>
</svg>
