<svg width="39" height="22" viewBox="0 0 39 22" fill="none" xmlns="http://www.w3.org/2000/svg">
<path d="M18.8815 0.840043C17.3362 0.702961 15.7789 0.862098 14.2933 1.30891C13.6569 1.61032 13.1881 2.31362 13.456 2.34711C14.0875 2.41462 14.6718 2.71275 15.097 3.18438C15.4844 3.96425 15.6796 4.82548 15.6664 5.69616C15.6664 5.69616 15.9678 10.4853 14.8961 11.0546C13.8244 11.624 13.1211 10.6528 10.9107 6.83484C10.1749 5.5116 9.51516 4.14743 8.93479 2.749C8.84114 2.50592 8.69206 2.28803 8.49942 2.11268C8.23678 1.93943 7.93971 1.82517 7.62867 1.77778H2.37066C2.37066 1.77778 1.56689 1.77778 1.165 2.14617C0.763119 2.51457 1.165 3.05041 1.165 3.05041C3.41819 8.29219 6.40653 13.1863 10.04 17.5853C11.1941 18.86 12.6063 19.8746 14.1826 20.5617C15.759 21.2488 17.4634 21.5928 19.1829 21.5706H21.2593C21.4384 21.5906 21.6197 21.5742 21.7924 21.5224C21.965 21.4706 22.1254 21.3845 22.264 21.2692C22.4727 21.0285 22.5806 20.7167 22.5654 20.3985C22.5654 20.3985 22.5654 17.4513 23.905 17.0494C25.2447 16.6475 26.9862 19.8961 28.8281 21.1688C29.537 21.7052 30.4214 21.9562 31.3064 21.8721H36.2295C36.2295 21.8721 38.8083 21.8721 37.5691 19.6617C36.6332 18.0447 35.4333 16.5958 34.0192 15.3749C30.938 12.4947 31.3399 12.9636 35.0574 8.00701C37.3347 4.99286 38.4064 3.15089 37.971 2.34711C37.5357 1.54334 36.0286 1.81127 36.0286 1.81127H30.4692C30.2397 1.74334 29.9954 1.74334 29.7659 1.81127C29.5563 1.97302 29.3848 2.17881 29.2635 2.4141C28.7015 3.95056 28.0184 5.43999 27.2206 6.86833C24.7758 11.0881 23.7711 11.2891 23.3692 10.8872C22.4315 10.2844 22.6659 8.47587 22.6659 7.16974C22.6659 3.21787 23.3022 1.54334 21.4602 1.10797C20.6178 0.896165 19.7494 0.805944 18.8815 0.840043Z" fill="white"/>
</svg>
